<?xml version="1.0" encoding="UTF-8"?>
<svg width="13px" height="12px" viewBox="0 0 13 12" version="1.1" xmlns="http://www.w3.org/2000/svg" xmlns:xlink="http://www.w3.org/1999/xlink">
    <title>Shape</title>
    <g id="Artboards" stroke="none" stroke-width="1" fill="none" fill-rule="evenodd">
        <g id="Wallet-Connected-(Updated-without-shadow)" transform="translate(-775.000000, -968.000000)" fill="#FFFFFF" fill-rule="nonzero">
            <g id="Group-10" transform="translate(560.000000, 865.000000)">
                <g id="Group-8-Copy-3" transform="translate(195.000000, 87.000000)">
                    <path d="M31.9172612,20.2396399 C31.4178963,20.1671043 30.9788509,19.8708432 30.7246971,19.434916 C30.4705432,18.9989887 30.4290162,18.4709669 30.6118985,18.0006683 C30.7295615,17.6894925 30.6361527,17.3379359 30.3795524,17.126202 C29.8270047,16.662213 29.1980691,16.2977162 28.5207835,16.048961 C28.204445,15.9314495 27.8484087,16.0302538 27.6378683,16.2939805 C27.3248121,16.6942895 26.8449146,16.9282128 26.3367301,16.9282128 C25.8285456,16.9282128 25.3486481,16.6942895 25.0355919,16.2939805 C24.8250515,16.0302538 24.4690152,15.9314495 24.1526767,16.048961 C23.5273133,16.2786213 22.9426139,16.6066234 22.420642,17.0205902 C22.1505649,17.2343971 22.0512335,17.5991831 22.1756225,17.9204033 C22.3733014,18.4036373 22.3302335,18.951968 22.0595341,19.3984139 C21.7888346,19.8448597 21.3225469,20.136574 20.8026682,20.1847217 C20.4609689,20.2212567 20.1832275,20.4767103 20.1183033,20.8141685 C20.0396426,21.2035389 20.0000089,21.5997849 20.0000089,21.9970214 C19.9994398,22.3295823 20.0262858,22.6616246 20.080283,22.989773 C20.1355319,23.3385334 20.4177751,23.6069242 20.7688724,23.6445665 C21.3005003,23.6944561 21.7749825,23.9988955 22.0418888,24.4613652 C22.308795,24.9238349 22.3350223,25.4869769 22.1122554,25.9722521 C21.964432,26.2923196 22.053236,26.671913 22.3277036,26.8931876 C22.8769333,27.3487498 23.4998149,27.7073353 24.1695746,27.9535308 C24.2552217,27.9831959 24.3450842,27.9988862 24.4357165,28 C24.6878845,27.9994521 24.9241172,27.8766111 25.0693877,27.670491 C25.3750751,27.2251141 25.881031,26.9594873 26.4212196,26.9607792 C26.9439446,26.9614415 27.43567,27.2088702 27.7477047,27.6282462 C27.958195,27.91119 28.3327891,28.0169781 28.6601912,27.8859392 C29.2726081,27.6394646 29.8427488,27.2988055 30.3499811,26.8762897 C30.611397,26.6601545 30.7035516,26.3000688 30.5781027,25.9849256 C30.3766601,25.5080273 30.4110891,24.9641785 30.6710636,24.5164908 C30.9310381,24.068803 31.386321,23.7693462 31.9003633,23.7079337 C32.2377443,23.661281 32.506062,23.4015084 32.5636059,23.0658135 C32.6314523,22.7134543 32.6682057,22.3558149 32.6734423,21.9970214 C32.6734423,21.6185708 32.6381649,21.240944 32.5678303,20.8690866 C32.5093302,20.54097 32.2471294,20.2872823 31.9172612,20.2396399 L31.9172612,20.2396399 Z M28.4489675,21.9970214 C28.4489675,23.1635779 27.5032866,24.1092588 26.3367301,24.1092588 C25.1701736,24.1092588 24.2244927,23.1635779 24.2244927,21.9970214 C24.2244927,20.8304649 25.1701736,19.884784 26.3367301,19.884784 C27.5032866,19.884784 28.4489675,20.8304649 28.4489675,21.9970214 Z" id="Shape"></path>
                </g>
            </g>
        </g>
    </g>
</svg>