<?xml version="1.0" encoding="UTF-8"?>
<svg width="24px" height="24px" viewBox="0 0 24 24" version="1.1" xmlns="http://www.w3.org/2000/svg" xmlns:xlink="http://www.w3.org/1999/xlink">
    <title>Shape</title>
    <g id="Artboards" stroke="none" stroke-width="1" fill="none" fill-rule="evenodd">
        <g id="Cashier---Deposit" transform="translate(-1023.000000, -384.000000)" fill="#FFFFFF" fill-rule="nonzero">
            <g id="Group-13" transform="translate(370.000000, 363.000000)">
                <path d="M665,21 C658.364,21 653,26.364 653,33 C653,39.636 658.364,45 665,45 C671.636,45 677,39.636 677,33 C677,26.364 671.636,21 665,21 Z M670.16,38.16 C669.692,38.628 668.936,38.628 668.468,38.16 L665,34.692 L661.532,38.16 C661.064,38.628 660.308,38.628 659.84,38.16 C659.372,37.692 659.372,36.936 659.84,36.468 L663.308,33 L659.84,29.532 C659.372,29.064 659.372,28.308 659.84,27.84 C660.308,27.372 661.064,27.372 661.532,27.84 L665,31.308 L668.468,27.84 C668.936,27.372 669.692,27.372 670.16,27.84 C670.628,28.308 670.628,29.064 670.16,29.532 L666.692,33 L670.16,36.468 C670.616,36.924 670.616,37.692 670.16,38.16 Z" id="Shape"></path>
            </g>
        </g>
    </g>
</svg>