<?xml version="1.0" encoding="UTF-8"?>
<svg width="9px" height="14px" viewBox="0 0 9 14" version="1.1" xmlns="http://www.w3.org/2000/svg" xmlns:xlink="http://www.w3.org/1999/xlink">
    <title>Shape</title>
    <g id="Desktop" stroke="none" stroke-width="1" fill="none" fill-rule="evenodd" opacity="0.900000036">
        <g id="Countdown" transform="translate(-205.000000, -31.000000)" fill="#FFFFFF" fill-rule="nonzero">
            <g id="Group-18" transform="translate(20.000000, 20.000000)">
                <g id="Group-8" transform="translate(169.000000, 0.000000)">
                    <path d="M17.4,11 C16.63,11 16,11.63 16,12.4 L16.007,14.626 C16.007,14.997 16.154,15.347 16.413,15.613 L18.8,18 L16.413,20.401 C16.154,20.66 16.007,21.017 16.007,21.388 L16,23.6 C16,24.37 16.63,25 17.4,25 L23,25 C23.77,25 24.4,24.37 24.4,23.6 L24.4,21.388 C24.4,21.017 24.253,20.66 23.994,20.401 L21.6,18 L23.987,15.62 C24.253,15.354 24.4,14.997 24.4,14.626 L24.4,12.4 C24.4,11.63 23.77,11 23,11 L17.4,11 Z M23,21.437 L23,22.9 C23,23.285 22.685,23.6 22.3,23.6 L18.1,23.6 C17.715,23.6 17.4,23.285 17.4,22.9 L17.4,21.437 C17.4,21.248 17.477,21.073 17.603,20.94 L20.2,18.35 L22.797,20.947 C22.923,21.073 23,21.255 23,21.437 Z" id="Shape"></path>
                </g>
            </g>
        </g>
    </g>
</svg>