<?xml version="1.0" encoding="UTF-8"?>
<svg width="140px" height="140px" viewBox="0 0 140 140" version="1.1" xmlns="http://www.w3.org/2000/svg" xmlns:xlink="http://www.w3.org/1999/xlink">
    <title>crying</title>
    <defs>
        <radialGradient cx="50%" cy="0%" fx="50%" fy="0%" r="100%" id="radialGradient-1">
            <stop stop-color="#FFDA2D" offset="0%"></stop>
            <stop stop-color="#FFAA2D" offset="100%"></stop>
        </radialGradient>
    </defs>
    <g id="Artboards" stroke="none" stroke-width="1" fill="none" fill-rule="evenodd">
        <g id="Game-Loss" transform="translate(-650.000000, -344.000000)" fill-rule="nonzero">
            <g id="Group-10" transform="translate(520.000000, 344.000000)">
                <g id="crying" transform="translate(130.000000, 0.000000)">
                    <path d="M119.497516,20.5024845 C106.275919,7.28116162 88.6974389,0 70,0 C51.3025611,0 33.7238074,7.28116162 20.5024845,20.5024845 C7.28116162,33.7238074 0,51.3022876 0,70 C0,88.6977124 7.28116162,106.276193 20.5024845,119.497516 C33.7238074,132.718838 51.3022876,140 70,140 C88.6977124,140 106.276466,132.718838 119.497516,119.497516 C132.718565,106.276193 140,88.6977124 140,70 C140,51.3022876 132.718838,33.7238074 119.497516,20.5024845 Z" id="Path" fill="url(#radialGradient-1)"></path>
                    <path d="M58.402972,113.379885 L51.7849274,108.532158 C56.0258684,102.742394 62.8353282,99.2857087 70,99.2857087 C77.1649452,99.2857087 83.9744051,102.742394 88.2150726,108.532158 L81.597028,113.379885 C78.8956123,109.691314 74.560331,107.489218 70,107.489218 C65.4399425,107.489218 61.1046612,109.691314 58.402972,113.379885 L58.402972,113.379885 Z" id="Path" fill="#414141"></path>
                    <circle id="Oval" fill="#414141" cx="44.0205791" cy="63.3472272" r="8.06678438"></circle>
                    <circle id="Oval" fill="#414141" cx="95.9794209" cy="63.3472272" r="8.06678438"></circle>
                    <path d="M116.333695,53.6782974 C111.418152,53.3829711 106.65164,52.17268 102.165961,50.080785 C97.6802819,47.9891636 93.689001,45.1154742 90.3034127,41.5403847 L96.2599809,35.899925 C98.9326843,38.7224792 102.086387,40.9923903 105.632764,42.6459443 C109.179141,44.2997719 112.944552,45.2563011 116.825359,45.4895542 L116.333695,53.6782974 Z" id="Path" fill="#414141"></path>
                    <path d="M23.6663047,53.6782974 L23.1743675,45.4895542 C27.0546276,45.2563011 30.8205853,44.2997719 34.3669625,42.6459443 C37.9136131,40.9921168 41.0667688,38.7224792 43.7394722,35.899925 L49.6963139,41.5403847 C46.310999,45.1157476 42.3197181,47.9891636 37.8337656,50.0810585 C33.3480866,52.17268 28.5813007,53.3829711 23.6663047,53.6782974 L23.6663047,53.6782974 Z" id="Path" fill="#414141"></path>
                    <path d="M44.1124584,78.4105114 L41.6445693,76.5513227 L39.1766802,78.4105114 C37.6076222,79.5926372 29.77956,85.8308593 29.77956,92.5719565 C29.77956,99.1145288 35.1022704,104.437239 41.6448427,104.437239 C48.187415,104.437239 53.5101255,99.1145288 53.5101255,92.5719565 C53.509852,85.8308593 45.6817898,79.5923637 44.1124584,78.4105114 L44.1124584,78.4105114 Z" id="Path" fill="#00B3FF"></path>
                </g>
            </g>
        </g>
    </g>
</svg>