<?xml version="1.0" encoding="UTF-8"?>
<svg width="18px" height="14px" viewBox="0 0 18 14" version="1.1" xmlns="http://www.w3.org/2000/svg" xmlns:xlink="http://www.w3.org/1999/xlink">
    <title>Shape</title>
    <g id="Artboards" stroke="none" stroke-width="1" fill="none" fill-rule="evenodd" fill-opacity="0.8">
        <g id="Wallet-Connected" transform="translate(-1237.000000, -28.000000)" fill="#FFFFFF" fill-rule="nonzero">
            <g id="Group-15" transform="translate(130.000000, 17.000000)">
                <g id="Group-13" transform="translate(958.000000, 0.000000)">
                    <g id="Group-3-Copy" transform="translate(140.000000, 0.000000)">
                        <path d="M24.006732,12.4285206 C22.901964,11.921606 21.7172673,11.5481337 20.4785931,11.3342306 C20.4560354,11.3301024 20.4335021,11.3404191 20.4218814,11.3610531 C20.269519,11.6320417 20.1007509,11.9855685 19.9825669,12.2634389 C18.6502927,12.0639835 17.3248542,12.0639835 16.0198984,12.2634389 C15.90169,11.9793919 15.7267942,11.6320417 15.5737482,11.3610531 C15.5621275,11.3411076 15.5395942,11.3307908 15.5170364,11.3342306 C14.2790459,11.5474502 13.0943492,11.9209224 11.9888976,12.4285206 C11.9793276,12.4326464 11.9711248,12.4395309 11.9656807,12.4484661 C9.71856053,15.8056153 9.10298039,19.0802481 9.40496343,22.3142818 C9.40632983,22.3301015 9.41521158,22.3452377 9.4275097,22.3548565 C10.9100953,23.4436339 12.3462328,24.1046198 13.7557013,24.5427381 C13.778259,24.5496226 13.8021595,24.541371 13.8165144,24.5227926 C14.1499247,24.0674874 14.4471304,23.5874029 14.7019548,23.0825391 C14.7169933,23.0529748 14.7026383,23.0178931 14.6719022,23.0061992 C14.2004844,22.8273729 13.7515999,22.6093391 13.3198046,22.361741 C13.2856506,22.3417954 13.2829163,22.2929447 13.314336,22.2695569 C13.4052018,22.2014687 13.4960919,22.1306217 13.5828562,22.0590912 C13.5985539,22.0460302 13.620428,22.0432715 13.6388844,22.0515231 C16.4755942,23.3466649 19.5466702,23.3466649 22.3499095,22.0515231 C22.3683659,22.0425879 22.39024,22.0453466 22.4066213,22.0584076 C22.49341,22.1299382 22.5842757,22.2014687 22.675825,22.2695569 C22.7072447,22.2929447 22.705194,22.3417954 22.67104,22.361741 C22.2392447,22.6141485 21.7903602,22.8273729 21.3182588,23.0055156 C21.2875227,23.0172095 21.2738513,23.0529748 21.2888898,23.0825391 C21.5491828,23.5866949 21.8463884,24.0667794 22.1736466,24.522109 C22.187318,24.541371 22.211902,24.5496226 22.2344598,24.5427381 C23.650764,24.1046198 25.0868916,23.4436339 26.5694775,22.3548565 C26.5824653,22.3452377 26.5906681,22.3307851 26.5920352,22.3149654 C26.9534474,18.5760678 25.9866869,15.3282895 24.0292653,12.4491497 C24.0244804,12.4395309 24.016302,12.4326464 24.006732,12.4285206 Z M15.1255717,20.3450931 C14.2715266,20.3450931 13.5678177,19.5610162 13.5678177,18.5980885 C13.5678177,17.6351608 14.2578797,16.8510838 15.1255717,16.8510838 C16.0000749,16.8510838 16.6969726,17.6420453 16.6833012,18.5980885 C16.6833012,19.5610162 15.9932393,20.3450931 15.1255717,20.3450931 Z M20.8850964,20.3450931 C20.0310758,20.3450931 19.3273669,19.5610162 19.3273669,18.5980885 C19.3273669,17.6351608 20.0174044,16.8510838 20.8850964,16.8510838 C21.7596241,16.8510838 22.4564973,17.6420453 22.4428504,18.5980885 C22.4428504,19.5610162 21.7596241,20.3450931 20.8850964,20.3450931 Z" id="Shape"></path>
                    </g>
                </g>
            </g>
        </g>
    </g>
</svg>