<?xml version="1.0" encoding="UTF-8"?>
<svg width="148px" height="154px" viewBox="0 0 148 154" version="1.1" xmlns="http://www.w3.org/2000/svg" xmlns:xlink="http://www.w3.org/1999/xlink">
    <title>party</title>
    <defs>
        <radialGradient cx="50%" cy="0%" fx="50%" fy="0%" r="100%" id="radialGradient-1">
            <stop stop-color="#FFDA2D" offset="0%"></stop>
            <stop stop-color="#FFAA2D" offset="100%"></stop>
        </radialGradient>
    </defs>
    <g id="Artboards" stroke="none" stroke-width="1" fill="none" fill-rule="evenodd">
        <g id="Game-Win" transform="translate(-642.000000, -330.000000)" fill-rule="nonzero">
            <g id="Group-11" transform="translate(-100.000000, 0.000000)">
                <g id="Group-10" transform="translate(620.000000, 330.000000)">
                    <g id="party" transform="translate(122.000000, 0.000000)">
                        <polygon id="Path" fill="#815BCD" points="6.52784108 0 0 6.00657352 14.7009251 63 62 19.4113366"></polygon>
                        <polygon id="Path" fill="#C66ED5" points="25.4877109 7 5 26.10502 7.51834224 36 35 10.37363"></polygon>
                        <path d="M127.204846,32.7954556 C113.794613,19.3852231 95.9651168,12 77.0001506,12 C58.0351844,12 40.205688,19.3852231 26.7957568,32.7954556 C13.3858257,46.205688 6,64.0351844 6,83.0001506 C6,101.965117 13.3855244,119.794613 26.7954556,133.204846 C40.2053867,146.615078 58.0351844,154 77.0001506,154 C95.9651168,154 113.794613,146.614777 127.204846,133.204846 C140.615078,119.794915 148,101.965117 148,83.0001506 C148,64.0351844 140.614777,46.205688 127.204846,32.7954556 Z" id="Path" fill="url(#radialGradient-1)"></path>
                        <path d="M65,75 L55.9309816,75 C55.9309816,72.1086417 53.494741,69.7563849 50.5001512,69.7563849 C47.5055613,69.7563849 45.0690184,72.1086417 45.0690184,75 L36,75 C36,67.2803711 42.5049046,61 50.5001512,61 C58.4953977,61 65,67.2803711 65,75 Z" id="Path" fill="#414141"></path>
                        <path d="M118,75 L108.930982,75 C108.930982,72.1086417 106.494439,69.7563849 103.499849,69.7563849 C100.505259,69.7563849 98.0690184,72.1086417 98.0690184,75 L89,75 C89,67.2803711 95.5046023,61 103.499849,61 C111.495095,61 118,67.2803711 118,75 Z" id="Path" fill="#606060"></path>
                        <path d="M114.858781,114 L87,114 L87,104.951945 L114.858781,104.951945 C116.61155,104.951945 118.037486,103.512399 118.037486,101.742901 L118.037486,99.2574004 C118.037486,97.4879024 116.611848,96.0480552 114.858781,96.0480552 C113.105713,96.0480552 111.679777,97.4876008 111.679777,99.2574004 L111.679777,99.9019235 L102.717263,99.9019235 L102.717263,99.2574004 C102.717263,92.4988048 108.163782,87 114.858781,87 C121.553779,87 127,92.4985032 127,99.2574004 L127,101.742901 C127,108.501798 121.55348,114 114.858781,114 Z" id="Path" fill="#C66ED5"></path>
                        <path d="M114.858781,114 L87,114 L87,104.951945 L114.858781,104.951945 C116.61155,104.951945 118.037486,103.512399 118.037486,101.742901 L118.037486,99.2574004 C118.037486,97.4879024 116.611848,96.0480552 114.858781,96.0480552 C113.105713,96.0480552 111.679777,97.4876008 111.679777,99.2574004 L111.679777,99.9019235 L102.717263,99.9019235 L102.717263,99.2574004 C102.717263,92.4988048 108.163782,87 114.858781,87 C121.553779,87 127,92.4985032 127,99.2574004 L127,101.742901 C127,108.501798 121.55348,114 114.858781,114 Z" id="Path" fill="#815BCD"></path>
                        <polygon id="Path" fill="#ABE233" transform="translate(139.956933, 23.014203) rotate(-45.000000) translate(-139.956933, -23.014203) " points="135.441105 18.4980742 144.472761 18.4980742 144.472761 27.5303316 135.441105 27.5303316"></polygon>
                        <polygon id="Path" fill="#00B3FF" transform="translate(137.985497, 141.983330) rotate(-45.000000) translate(-137.985497, -141.983330) " points="133.46967 137.467201 142.501325 137.467201 142.501325 146.499458 133.46967 146.499458"></polygon>
                        <polygon id="Path" fill="#76E2F8" transform="translate(112.810424, 6.482914) rotate(-45.000000) translate(-112.810424, -6.482914) " points="108.294596 1.96678528 117.326252 1.96678528 117.326252 10.9990426 108.294596 10.9990426"></polygon>
                        <polygon id="Path" fill="#FD4151" transform="translate(95.095730, 40.369955) rotate(-45.000000) translate(-95.095730, -40.369955) " points="90.5799023 35.8538268 99.6115576 35.8538268 99.6115576 44.8860841 90.5799023 44.8860841"></polygon>
                        <path d="M81.9428239,129 L77,129 L77,119.952381 L81.9428239,119.952381 C83.4771768,119.952381 84.7252491,118.734873 84.7252491,117.238095 C84.7252491,115.741317 83.4771768,114.52381 81.9428239,114.52381 L81.9428239,105.47619 C83.4771768,105.47619 84.7252491,104.258683 84.7252491,102.761905 C84.7252491,101.265127 83.4771768,100.047619 81.9428239,100.047619 L77,100.047619 L77,91 L81.9428239,91 C88.5912745,91 94,96.2762698 94,102.761905 C94,105.489159 93.043464,108.002889 91.4404779,110 C93.0437732,111.997111 94,114.510841 94,117.238095 C94,123.72373 88.5912745,129 81.9428239,129 Z" id="Path" fill="#606060"></path>
                        <path d="M81.9428239,129 L77,129 L77,119.952381 L81.9428239,119.952381 C83.4771768,119.952381 84.7252491,118.734873 84.7252491,117.238095 C84.7252491,115.741317 83.4771768,114.52381 81.9428239,114.52381 L81.9428239,105.47619 C83.4771768,105.47619 84.7252491,104.258683 84.7252491,102.761905 C84.7252491,101.265127 83.4771768,100.047619 81.9428239,100.047619 L77,100.047619 L77,91 L81.9428239,91 C88.5912745,91 94,96.2762698 94,102.761905 C94,105.489159 93.043464,108.002889 91.4404779,110 C93.0437732,111.997111 94,114.510841 94,117.238095 C94,123.72373 88.5912745,129 81.9428239,129 Z" id="Path" fill="#414141"></path>
                        <path d="M118,75 L108.930982,75 C108.930982,72.1086417 106.494439,69.7563849 103.499849,69.7563849 C100.505259,69.7563849 98.0690184,72.1086417 98.0690184,75 L89,75 C89,67.2803711 95.5046023,61 103.499849,61 C111.495095,61 118,67.2803711 118,75 Z" id="Path" fill="#414141"></path>
                    </g>
                </g>
            </g>
        </g>
    </g>
</svg>