<?xml version="1.0" encoding="UTF-8"?>
<svg width="18px" height="15px" viewBox="0 0 18 15" version="1.1" xmlns="http://www.w3.org/2000/svg" xmlns:xlink="http://www.w3.org/1999/xlink">
    <title>twitter-2</title>
    <g id="Artboards" stroke="none" stroke-width="1" fill="none" fill-rule="evenodd" fill-opacity="0.8">
        <g id="Wallet-Connected" transform="translate(-1283.000000, -28.000000)" fill="#FFFFFF" fill-rule="nonzero">
            <g id="Group-15" transform="translate(130.000000, 17.000000)">
                <g id="Group-13" transform="translate(958.000000, 0.000000)">
                    <g id="Group-14" transform="translate(140.000000, 0.000000)">
                        <g id="Group-3" transform="translate(46.000000, 0.000000)">
                            <g id="twitter-2" transform="translate(9.333333, 11.333333)">
                                <path d="M17.3333333,1.66833333 C16.6833333,1.95 16.0116667,2.145 15.2966667,2.23166667 C16.0333333,1.79833333 16.5966667,1.105 16.8566667,0.26 C16.1633333,0.671666667 15.405,0.953333333 14.6033333,1.12666667 C13.9533333,0.433333333 13.0216667,0 12.0033333,0 C10.0316667,0 8.45,1.60333333 8.45,3.55333333 C8.45,3.835 8.47166667,4.095 8.53666667,4.355 C5.59,4.225 2.99,2.795 1.235,0.65 C-0.0216666667,2.90333333 1.38666667,4.76666667 2.31833333,5.395 C1.755,5.395 1.19166667,5.22166667 0.715,4.96166667 C0.715,6.71666667 1.95,8.16833333 3.55333333,8.49333333 C3.20666667,8.60166667 2.42666667,8.66666667 1.95,8.55833333 C2.405,9.96666667 3.72666667,11.0066667 5.265,11.0283333 C4.05166667,11.9816667 2.275,12.74 0,12.5016667 C1.58166667,13.52 3.445,14.105 5.46,14.105 C12.0033333,14.105 15.5566667,8.68833333 15.5566667,4.00833333 C15.5566667,3.85666667 15.5566667,3.705 15.535,3.55333333 C16.2716667,3.01166667 16.8783333,2.38333333 17.3333333,1.66833333 L17.3333333,1.66833333 Z" id="_x30_4.Twitter"></path>
                            </g>
                        </g>
                    </g>
                </g>
            </g>
        </g>
    </g>
</svg>