<?xml version="1.0" encoding="UTF-8"?>
<svg width="14px" height="12px" viewBox="0 0 14 12" version="1.1" xmlns="http://www.w3.org/2000/svg" xmlns:xlink="http://www.w3.org/1999/xlink">
    <title>Combined Shape</title>
    <g id="Artboards" stroke="none" stroke-width="1" fill="none" fill-rule="evenodd">
        <g id="Wallet-Connected" transform="translate(-1112.000000, -29.000000)" fill="#FFFFFF" fill-rule="nonzero">
            <g id="Group-15" transform="translate(130.000000, 17.000000)">
                <g id="Group-8" transform="translate(958.000000, 0.000000)">
                    <path d="M33.7142857,12 C34.3445714,12 34.8571429,12.5125714 34.8571429,13.1428571 L34.8571429,13.1428571 L34.8571429,14.2857143 L35.4285714,14.2857143 C36.0588571,14.2857143 36.5714286,14.7982857 36.5714286,15.4285714 L36.5714286,15.4285714 L36.5714286,16.5714286 L35.1428571,16.5714286 C33.7251429,16.5714286 32.5714286,17.7251429 32.5714286,19.1428571 C32.5714286,20.5605714 33.7251429,21.7142857 35.1428571,21.7142857 L35.1428571,21.7142857 L36.5714286,21.7142857 L36.5714286,22.8571429 C36.5714286,23.4874286 36.0588571,24 35.4285714,24 L35.4285714,24 L25.7142857,24 C24.7691429,24 24,23.2308571 24,22.2857143 L24,22.2857143 L24,13.5714286 C24,13.5205714 24.0165714,13.4748571 24.0291429,13.428 C24.1662857,12.6194286 24.8668571,12 25.7142857,12 L25.7142857,12 Z M37.2857143,17.4285714 C37.5222857,17.4285714 37.7142857,17.6205714 37.7142857,17.8571429 L37.7142857,17.8571429 L37.7142857,20.4285714 C37.7142857,20.6651429 37.5222857,20.8571429 37.2857143,20.8571429 L37.2857143,20.8571429 L35.1428571,20.8571429 C34.1977143,20.8571429 33.4285714,20.088 33.4285714,19.1428571 C33.4285714,18.1977143 34.1977143,17.4285714 35.1428571,17.4285714 L35.1428571,17.4285714 Z M35.1428571,18.5714286 C34.8274286,18.5714286 34.5714286,18.8274286 34.5714286,19.1428571 C34.5714286,19.4582857 34.8274286,19.7142857 35.1428571,19.7142857 C35.4582857,19.7142857 35.7142857,19.4582857 35.7142857,19.1428571 C35.7142857,18.8274286 35.4582857,18.5714286 35.1428571,18.5714286 Z M33.7142857,13.1428571 L25.7142857,13.1428571 C25.3988571,13.1428571 25.1428571,13.3994286 25.1428571,13.7142857 C25.1428571,14.0291429 25.3988571,14.2857143 25.7142857,14.2857143 L25.7142857,14.2857143 L33.7142857,14.2857143 L33.7142857,13.1428571 Z" id="Combined-Shape"></path>
                </g>
            </g>
        </g>
    </g>
</svg>